<svg xmlns="http://www.w3.org/2000/svg" xmlns:xlink="http://www.w3.org/1999/xlink" version="1.1" width="256" height="256" viewBox="0 0 256 256" xml:space="preserve">
<desc>Created with Fabric.js 1.7.22</desc>
<defs>
</defs>
<g transform="translate(128 128) scale(0.72 0.72)" style="">
	<g style="stroke: none; stroke-width: 0; stroke-dasharray: none; stroke-linecap: butt; stroke-linejoin: miter; stroke-miterlimit: 10; fill: none; fill-rule: nonzero; opacity: 1;" transform="translate(-175.05 -175.05000000000004) scale(3.89 3.89)" >
	<rect x="3.44" y="11.14" rx="0" ry="0" width="84.42" height="67.06" style="stroke: none; stroke-width: 1; stroke-dasharray: none; stroke-linecap: butt; stroke-linejoin: miter; stroke-miterlimit: 10; fill: rgb(249,249,249); fill-rule: nonzero; opacity: 1;" transform=" matrix(1 0 0 1 0 0) "/>
	<path d="M 87.788 9.121 H 46.643 h -7.289 H 2.212 C 0.991 9.121 0 10.112 0 11.334 v 21.545 v 45.788 c 0 1.222 0.991 2.212 2.212 2.212 h 37.141 h 7.289 h 41.145 c 1.222 0 2.212 -0.991 2.212 -2.212 V 32.879 V 11.334 C 90 10.112 89.009 9.121 87.788 9.121 z M 41.392 14.557 c 0 -0.63 0.511 -1.141 1.141 -1.141 h 4.11 h 1.023 c 0.63 0 1.141 0.511 1.141 1.141 v 5.133 c 0 0.63 -0.511 1.141 -1.141 1.141 h -1.023 h -4.11 c -0.63 0 -1.141 -0.511 -1.141 -1.141 V 14.557 z M 29.168 14.557 c 0 -0.63 0.511 -1.141 1.141 -1.141 h 5.133 c 0.63 0 1.141 0.511 1.141 1.141 v 5.133 c 0 0.63 -0.511 1.141 -1.141 1.141 h -5.133 c -0.63 0 -1.141 -0.511 -1.141 -1.141 V 14.557 z M 12.53 75.443 c 0 0.63 -0.511 1.141 -1.141 1.141 H 6.256 c -0.63 0 -1.141 -0.511 -1.141 -1.141 V 70.31 c 0 -0.63 0.511 -1.141 1.141 -1.141 h 5.133 c 0.63 0 1.141 0.511 1.141 1.141 V 75.443 z M 12.53 19.69 c 0 0.63 -0.511 1.141 -1.141 1.141 H 6.256 c -0.63 0 -1.141 -0.511 -1.141 -1.141 v -5.133 c 0 -0.63 0.511 -1.141 1.141 -1.141 h 5.133 c 0.63 0 1.141 0.511 1.141 1.141 V 19.69 z M 24.556 75.443 c 0 0.63 -0.511 1.141 -1.141 1.141 h -5.133 c -0.63 0 -1.141 -0.511 -1.141 -1.141 V 70.31 c 0 -0.63 0.511 -1.141 1.141 -1.141 h 5.133 c 0.63 0 1.141 0.511 1.141 1.141 V 75.443 z M 24.556 19.69 c 0 0.63 -0.511 1.141 -1.141 1.141 h -5.133 c -0.63 0 -1.141 -0.511 -1.141 -1.141 v -5.133 c 0 -0.63 0.511 -1.141 1.141 -1.141 h 5.133 c 0.63 0 1.141 0.511 1.141 1.141 V 19.69 z M 36.582 75.443 c 0 0.63 -0.511 1.141 -1.141 1.141 h -5.133 c -0.63 0 -1.141 -0.511 -1.141 -1.141 V 70.31 c 0 -0.63 0.511 -1.141 1.141 -1.141 h 5.133 c 0.63 0 1.141 0.511 1.141 1.141 V 75.443 z M 37.339 57.272 c -0.979 0.565 -2.204 -0.141 -2.204 -1.272 V 34 c 0 -1.131 1.224 -1.838 2.204 -1.272 l 19.052 11 c 0.979 0.565 0.979 1.979 0 2.545 L 37.339 57.272 z M 48.806 75.443 c 0 0.63 -0.511 1.141 -1.141 1.141 h -1.023 h -4.11 c -0.63 0 -1.141 -0.511 -1.141 -1.141 V 70.31 c 0 -0.63 0.511 -1.141 1.141 -1.141 h 4.11 h 1.023 c 0.63 0 1.141 0.511 1.141 1.141 V 75.443 z M 60.832 75.443 c 0 0.63 -0.511 1.141 -1.141 1.141 h -5.133 c -0.63 0 -1.141 -0.511 -1.141 -1.141 V 70.31 c 0 -0.63 0.511 -1.141 1.141 -1.141 h 5.133 c 0.63 0 1.141 0.511 1.141 1.141 V 75.443 z M 60.832 19.69 c 0 0.63 -0.511 1.141 -1.141 1.141 h -5.133 c -0.63 0 -1.141 -0.511 -1.141 -1.141 v -5.133 c 0 -0.63 0.511 -1.141 1.141 -1.141 h 5.133 c 0.63 0 1.141 0.511 1.141 1.141 V 19.69 z M 72.859 75.443 c 0 0.63 -0.511 1.141 -1.141 1.141 h -5.133 c -0.63 0 -1.141 -0.511 -1.141 -1.141 V 70.31 c 0 -0.63 0.511 -1.141 1.141 -1.141 h 5.133 c 0.63 0 1.141 0.511 1.141 1.141 V 75.443 z M 72.859 19.69 c 0 0.63 -0.511 1.141 -1.141 1.141 h -5.133 c -0.63 0 -1.141 -0.511 -1.141 -1.141 v -5.133 c 0 -0.63 0.511 -1.141 1.141 -1.141 h 5.133 c 0.63 0 1.141 0.511 1.141 1.141 V 19.69 z M 84.885 75.443 c 0 0.63 -0.511 1.141 -1.141 1.141 h -5.133 c -0.63 0 -1.141 -0.511 -1.141 -1.141 V 70.31 c 0 -0.63 0.511 -1.141 1.141 -1.141 h 5.133 c 0.63 0 1.141 0.511 1.141 1.141 V 75.443 z M 84.885 19.69 c 0 0.63 -0.511 1.141 -1.141 1.141 h -5.133 c -0.63 0 -1.141 -0.511 -1.141 -1.141 v -5.133 c 0 -0.63 0.511 -1.141 1.141 -1.141 h 5.133 c 0.63 0 1.141 0.511 1.141 1.141 V 19.69 z" style="stroke: none; stroke-width: 1; stroke-dasharray: none; stroke-linecap: butt; stroke-linejoin: miter; stroke-miterlimit: 10; fill: rgb(210,34,21); fill-rule: nonzero; opacity: 1;" transform=" matrix(1 0 0 1 0 0) " stroke-linecap="round" />
</g>
</g>
</svg>