<svg width="40" height="23" viewBox="0 0 40 23" fill="none" xmlns="http://www.w3.org/2000/svg">
<path d="M19.0105 5.73506H20.9595V17.2351H19.0105V5.73506ZM1.94903 17.2351H0V5.73506H1.94903V17.2351ZM9.50525 18.6091H11.4543V23H9.50525V18.6091ZM4.73763 13.6805H6.68666V20.7896H4.73763V13.6805ZM14.2429 13.6805H16.1919V20.7896H14.2429V13.6805ZM38.051 5.73506H40V17.2351H38.051V5.73506ZM30.4948 4.39091H28.5457V0H30.4948V4.39091ZM35.2624 9.28961H33.3133V2.21039H35.2624V9.28961ZM25.7271 9.28961H23.7781V2.21039H25.7271V9.28961Z" fill="url(#paint0_linear)"/>
<defs>
<linearGradient id="paint0_linear" x1="7.09745" y1="15.7782" x2="24.2214" y2="-1.41158" gradientUnits="userSpaceOnUse">
<stop stop-color="#E32929"/>
<stop offset="1" stop-color="#FF8D30"/>
</linearGradient>
</defs>
</svg>
